<svg xmlns="http://www.w3.org/2000/svg" xmlns:xlink="http://www.w3.org/1999/xlink" width="19.491" height="16.242" viewBox="0 0 19.491 16.242"><defs><style>.a{fill:none;}.b{clip-path:url(#a);}.c{fill-rule:evenodd;}</style><clipPath id="a"><rect class="a" width="19.491" height="16.242"/></clipPath></defs><g transform="translate(19.491 16.242) rotate(180)"><g class="b" transform="translate(0 0)"><path class="c" d="M19.085,5.694H9L13.3.67A.406.406,0,0,0,12.994,0H7.309a.407.407,0,0,0-.3.136L.1,7.86A.4.4,0,0,0,.1,8.4l6.9,7.707a.406.406,0,0,0,.3.135H13.1a.406.406,0,0,0,.306-.673l-4.384-5H19.085a.406.406,0,0,0,.406-.406V6.1a.406.406,0,0,0-.406-.406" transform="translate(0 0)"/></g></g></svg>