<svg xmlns="http://www.w3.org/2000/svg" xmlns:xlink="http://www.w3.org/1999/xlink" width="225.082" height="46.909" viewBox="0 0 225.082 46.909"><defs><style>.a{fill:none;}.b{clip-path:url(#a);}</style><clipPath id="a"><rect class="a" width="225.082" height="46.909"/></clipPath></defs><g transform="translate(0 0)"><g class="b" transform="translate(0 0)"><path d="M3.476,16.294a4.5,4.5,0,0,1-1.811-3.571H6.119a1.665,1.665,0,0,0,.47,1.151,1.5,1.5,0,0,0,1.044.363,1.507,1.507,0,0,0,.948-.289.954.954,0,0,0,.373-.8,1.13,1.13,0,0,0-.619-1.023,10.857,10.857,0,0,0-2-.81,17.906,17.906,0,0,1-2.377-.948A4.559,4.559,0,0,1,2.378,9.026a3.728,3.728,0,0,1-.671-2.312,4.222,4.222,0,0,1,.725-2.484,4.49,4.49,0,0,1,2-1.566,7.471,7.471,0,0,1,2.9-.533,6.619,6.619,0,0,1,4.189,1.225A4.412,4.412,0,0,1,13.2,6.8H8.656a1.344,1.344,0,0,0-.416-1.023,1.5,1.5,0,0,0-1.013-.341,1.084,1.084,0,0,0-.768.278,1.023,1.023,0,0,0-.3.788.974.974,0,0,0,.33.736,3.055,3.055,0,0,0,.82.533q.49.224,1.45.565a17.739,17.739,0,0,1,2.356.97,4.8,4.8,0,0,1,1.6,1.343,3.449,3.449,0,0,1,.671,2.185,4.424,4.424,0,0,1-.671,2.409,4.615,4.615,0,0,1-1.94,1.683,6.755,6.755,0,0,1-2.994.618,7.04,7.04,0,0,1-4.306-1.247" transform="translate(-0.448 -0.574)"/><path d="M20.2,9.325A5.289,5.289,0,0,1,22.34,7.194a6.48,6.48,0,0,1,3.143-.746A5.942,5.942,0,0,1,29.321,7.7a5.722,5.722,0,0,1,2,3.484H26.89A1.484,1.484,0,0,0,25.4,10.008a1.447,1.447,0,0,0-1.247.65,3.306,3.306,0,0,0-.458,1.908,3.357,3.357,0,0,0,.458,1.919,1.442,1.442,0,0,0,1.247.66,1.464,1.464,0,0,0,1.492-1.173h4.433a5.757,5.757,0,0,1-2,3.475A5.907,5.907,0,0,1,25.483,18.7a6.48,6.48,0,0,1-3.143-.746A5.282,5.282,0,0,1,20.2,15.826a6.625,6.625,0,0,1-.767-3.261,6.583,6.583,0,0,1,.767-3.24" transform="translate(-5.234 -1.737)"/><path d="M49.19,6.514a5.445,5.445,0,0,1,1.2,3.72V17.2H46.216V10.788a2.3,2.3,0,0,0-.533-1.61,1.836,1.836,0,0,0-1.428-.585,1.891,1.891,0,0,0-1.471.585,2.307,2.307,0,0,0-.533,1.61V17.2H38.073V1.43h4.178V6.951a4.1,4.1,0,0,1,1.5-1.311,4.606,4.606,0,0,1,2.185-.5A4.1,4.1,0,0,1,49.19,6.514" transform="translate(-10.256 -0.385)"/><path d="M57.824,9.325a5.1,5.1,0,0,1,1.833-2.131,4.694,4.694,0,0,1,2.59-.747,4.381,4.381,0,0,1,2.132.49,3.559,3.559,0,0,1,1.385,1.322V6.6h4.178V18.555H65.764V16.892a3.526,3.526,0,0,1-1.4,1.322,4.395,4.395,0,0,1-2.121.49,4.693,4.693,0,0,1-2.59-.746,5.086,5.086,0,0,1-1.833-2.142,7.428,7.428,0,0,1-.671-3.251,7.358,7.358,0,0,1,.671-3.24m7.311,1.428a2.163,2.163,0,0,0-3.1-.011,2.537,2.537,0,0,0-.618,1.822,2.584,2.584,0,0,0,.618,1.823,2.025,2.025,0,0,0,1.556.672,2.049,2.049,0,0,0,1.545-.662,2.551,2.551,0,0,0,.628-1.833,2.523,2.523,0,0,0-.628-1.811" transform="translate(-15.395 -1.737)"/><path d="M83.809,7.1a4.133,4.133,0,0,1,2.152-.6v4.455H84.789a3.188,3.188,0,0,0-2.025.533,2.258,2.258,0,0,0-.662,1.854V18.57H77.925V6.612H82.1V8.723A5.445,5.445,0,0,1,83.809,7.1" transform="translate(-20.991 -1.753)"/><path d="M97.087,8.334H95.211v8.483h-4.2V8.334h-1.3V4.859h1.3V4.753a4.514,4.514,0,0,1,1.353-3.527A5.6,5.6,0,0,1,96.255,0c.341,0,.6.007.788.021v3.56a4.059,4.059,0,0,0-.468-.021,1.4,1.4,0,0,0-1,.309,1.462,1.462,0,0,0-.362.991h1.876Z" transform="translate(-24.165 0)"/><path d="M103.826,18.161a4.923,4.923,0,0,1-2-1.492A3.869,3.869,0,0,1,101,14.527h4.05a1.277,1.277,0,0,0,.533.9,1.856,1.856,0,0,0,1.108.32,1.364,1.364,0,0,0,.81-.213.651.651,0,0,0,.3-.554.7.7,0,0,0-.49-.661,10.143,10.143,0,0,0-1.621-.468,14.008,14.008,0,0,1-2.131-.576,3.637,3.637,0,0,1-1.482-1.045,2.892,2.892,0,0,1-.628-1.961,3.4,3.4,0,0,1,.576-1.929,3.936,3.936,0,0,1,1.694-1.375,6.449,6.449,0,0,1,2.7-.511A5.485,5.485,0,0,1,110.1,7.6a4.505,4.505,0,0,1,1.556,3.027h-3.773a1.4,1.4,0,0,0-.5-.884,1.661,1.661,0,0,0-1.055-.309,1.329,1.329,0,0,0-.778.191.622.622,0,0,0-.267.533.709.709,0,0,0,.491.651,8.36,8.36,0,0,0,1.577.457,13.887,13.887,0,0,1,2.164.618,3.854,3.854,0,0,1,1.513,1.1,3.054,3.054,0,0,1,.65,2.057,3.1,3.1,0,0,1-.608,1.876,4.058,4.058,0,0,1-1.726,1.311,6.66,6.66,0,0,1-2.633.479,7.269,7.269,0,0,1-2.888-.544" transform="translate(-27.207 -1.737)"/><path d="M125.176,13.982v3.56h-1.812q-4.583,0-4.583-4.54V9.058H117.31V5.583h1.471v-2.9h4.2v2.9h2.175V9.058H122.98v4.007a.939.939,0,0,0,.224.7,1.085,1.085,0,0,0,.757.213Z" transform="translate(-31.6 -0.723)"/><path d="M141.811,13.417H133.9a2.194,2.194,0,0,0,.544,1.461,1.659,1.659,0,0,0,1.225.479,1.537,1.537,0,0,0,1.493-.938h4.454a5.215,5.215,0,0,1-1.075,2.206,5.544,5.544,0,0,1-2.014,1.524,6.383,6.383,0,0,1-2.687.555,6.483,6.483,0,0,1-3.144-.746,5.355,5.355,0,0,1-2.153-2.132,6.55,6.55,0,0,1-.777-3.262,6.571,6.571,0,0,1,.766-3.251,5.312,5.312,0,0,1,2.143-2.12,7.106,7.106,0,0,1,6.3-.021,5.22,5.22,0,0,1,2.131,2.078,6.358,6.358,0,0,1,.768,3.187,7.479,7.479,0,0,1-.064.98m-4.2-2.025a1.5,1.5,0,0,0-.511-1.2,1.9,1.9,0,0,0-1.279-.437,1.877,1.877,0,0,0-1.257.415,2.022,2.022,0,0,0-.639,1.226Z" transform="translate(-34.955 -1.737)"/><rect width="4.178" height="15.774" transform="translate(108.625 1.044)"/><rect width="4.178" height="15.774" transform="translate(115.19 1.044)"/><path d="M177.753,13.417h-7.908a2.194,2.194,0,0,0,.544,1.461,1.659,1.659,0,0,0,1.225.479,1.537,1.537,0,0,0,1.493-.938h4.454a5.215,5.215,0,0,1-1.076,2.206,5.544,5.544,0,0,1-2.014,1.524,6.383,6.383,0,0,1-2.687.555,6.483,6.483,0,0,1-3.144-.746,5.355,5.355,0,0,1-2.153-2.132,6.55,6.55,0,0,1-.777-3.262,6.57,6.57,0,0,1,.766-3.251,5.311,5.311,0,0,1,2.143-2.12,7.106,7.106,0,0,1,6.3-.021,5.22,5.22,0,0,1,2.131,2.078,6.358,6.358,0,0,1,.768,3.187,7.479,7.479,0,0,1-.064.98m-4.2-2.025a1.5,1.5,0,0,0-.511-1.2,1.9,1.9,0,0,0-1.279-.437,1.877,1.877,0,0,0-1.257.415,2.022,2.022,0,0,0-.639,1.226Z" transform="translate(-44.637 -1.737)"/><path d="M195.721,7.881a5.417,5.417,0,0,1,1.215,3.72v6.97h-4.178V12.155a2.307,2.307,0,0,0-.533-1.61A1.837,1.837,0,0,0,190.8,9.96a1.889,1.889,0,0,0-1.471.585,2.308,2.308,0,0,0-.533,1.61v6.416h-4.178V6.613h4.178V8.318a4.112,4.112,0,0,1,1.493-1.311,4.5,4.5,0,0,1,2.152-.5,4.157,4.157,0,0,1,3.283,1.375" transform="translate(-49.729 -1.753)"/><path d="M7.216,40.071a3.541,3.541,0,0,1,1.4,1.322V39.731H12.79v11.83A7.029,7.029,0,0,1,12.15,54.6a4.955,4.955,0,0,1-1.993,2.163,6.576,6.576,0,0,1-3.422.81,7,7,0,0,1-4.433-1.3,4.947,4.947,0,0,1-1.9-3.538H4.519a1.372,1.372,0,0,0,.64.9,2.463,2.463,0,0,0,1.321.32q2.132,0,2.131-2.388V50.026a3.526,3.526,0,0,1-1.4,1.322,4.395,4.395,0,0,1-2.121.49,4.693,4.693,0,0,1-2.59-.746A5.086,5.086,0,0,1,.671,48.95a8.179,8.179,0,0,1,0-6.491A5.1,5.1,0,0,1,2.5,40.328a4.694,4.694,0,0,1,2.59-.747,4.395,4.395,0,0,1,2.121.49m.767,3.816a2.05,2.05,0,0,0-1.545-.66,2.059,2.059,0,0,0-1.556.65A2.537,2.537,0,0,0,4.263,45.7a2.584,2.584,0,0,0,.618,1.823,2.025,2.025,0,0,0,1.556.672,2.049,2.049,0,0,0,1.545-.662A2.551,2.551,0,0,0,8.611,45.7a2.523,2.523,0,0,0-.628-1.811" transform="translate(0 -10.662)"/><path d="M31.882,46.551H23.974a2.194,2.194,0,0,0,.544,1.461,1.659,1.659,0,0,0,1.225.479,1.537,1.537,0,0,0,1.493-.938H31.69a5.215,5.215,0,0,1-1.075,2.206A5.544,5.544,0,0,1,28.6,51.284a6.383,6.383,0,0,1-2.687.555,6.483,6.483,0,0,1-3.144-.746,5.355,5.355,0,0,1-2.153-2.132,7.253,7.253,0,0,1-.011-6.512,5.312,5.312,0,0,1,2.143-2.12,7.106,7.106,0,0,1,6.3-.021,5.22,5.22,0,0,1,2.131,2.078,6.358,6.358,0,0,1,.768,3.187,7.479,7.479,0,0,1-.064.98m-4.2-2.025a1.5,1.5,0,0,0-.511-1.2,1.9,1.9,0,0,0-1.279-.437,1.877,1.877,0,0,0-1.257.415A2.022,2.022,0,0,0,24,44.527Z" transform="translate(-5.344 -10.662)"/><path d="M45.025,40.071a3.541,3.541,0,0,1,1.4,1.322V39.731H50.6v11.83a7.029,7.029,0,0,1-.639,3.037,4.955,4.955,0,0,1-1.993,2.163,6.576,6.576,0,0,1-3.422.81,7,7,0,0,1-4.433-1.3,4.947,4.947,0,0,1-1.9-3.538h4.113a1.372,1.372,0,0,0,.64.9,2.463,2.463,0,0,0,1.321.32q2.132,0,2.131-2.388V50.026a3.526,3.526,0,0,1-1.4,1.322,4.395,4.395,0,0,1-2.121.49,4.693,4.693,0,0,1-2.59-.746A5.086,5.086,0,0,1,38.48,48.95a8.179,8.179,0,0,1,0-6.491,5.1,5.1,0,0,1,1.833-2.131,4.694,4.694,0,0,1,2.59-.747,4.395,4.395,0,0,1,2.121.49m.767,3.816a2.163,2.163,0,0,0-3.1-.011,2.537,2.537,0,0,0-.618,1.822,2.584,2.584,0,0,0,.618,1.823,2.025,2.025,0,0,0,1.556.672,2.049,2.049,0,0,0,1.545-.662A2.551,2.551,0,0,0,46.42,45.7a2.523,2.523,0,0,0-.628-1.811" transform="translate(-10.185 -10.662)"/><path d="M69.692,46.551H61.784a2.194,2.194,0,0,0,.544,1.461,1.659,1.659,0,0,0,1.225.479,1.537,1.537,0,0,0,1.493-.938H69.5a5.215,5.215,0,0,1-1.075,2.206,5.544,5.544,0,0,1-2.014,1.524,6.383,6.383,0,0,1-2.687.555,6.483,6.483,0,0,1-3.144-.746,5.355,5.355,0,0,1-2.153-2.132,7.253,7.253,0,0,1-.011-6.512,5.311,5.311,0,0,1,2.143-2.12,7.106,7.106,0,0,1,6.3-.021,5.22,5.22,0,0,1,2.131,2.078,6.358,6.358,0,0,1,.768,3.187,7.479,7.479,0,0,1-.064.98m-4.2-2.025a1.5,1.5,0,0,0-.511-1.2,1.9,1.9,0,0,0-1.279-.437,1.877,1.877,0,0,0-1.257.415,2.022,2.022,0,0,0-.639,1.226Z" transform="translate(-15.529 -10.662)"/><path d="M87.66,41.015a5.417,5.417,0,0,1,1.215,3.72V51.7H84.7V45.289a2.307,2.307,0,0,0-.533-1.61,1.837,1.837,0,0,0-1.428-.585,1.889,1.889,0,0,0-1.471.585,2.307,2.307,0,0,0-.533,1.61V51.7H76.554V39.747h4.178v1.705a4.112,4.112,0,0,1,1.493-1.311,4.5,4.5,0,0,1,2.152-.5,4.157,4.157,0,0,1,3.283,1.375" transform="translate(-20.621 -10.678)"/><path d="M109.749,50.612l-2.984-5.542h-.448v5.542h-4.178V35.584h6.587a6.808,6.808,0,0,1,3.069.629,4.4,4.4,0,0,1,1.9,1.726,4.8,4.8,0,0,1,.639,2.463,4.47,4.47,0,0,1-.842,2.7,4.547,4.547,0,0,1-2.462,1.652l3.389,5.862Zm-3.432-8.4h2.068a1.8,1.8,0,0,0,1.279-.4,1.539,1.539,0,0,0,.426-1.172,1.5,1.5,0,0,0-.437-1.141,1.772,1.772,0,0,0-1.268-.415h-2.068Z" transform="translate(-27.513 -9.585)"/><path d="M132.534,46.551h-7.908a2.194,2.194,0,0,0,.544,1.461,1.659,1.659,0,0,0,1.225.479,1.537,1.537,0,0,0,1.493-.938h4.454a5.215,5.215,0,0,1-1.075,2.206,5.544,5.544,0,0,1-2.014,1.524,6.383,6.383,0,0,1-2.687.555,6.483,6.483,0,0,1-3.144-.746,5.355,5.355,0,0,1-2.153-2.132,7.253,7.253,0,0,1-.011-6.512,5.312,5.312,0,0,1,2.143-2.12,7.106,7.106,0,0,1,6.3-.021,5.22,5.22,0,0,1,2.131,2.078,6.359,6.359,0,0,1,.768,3.187,7.477,7.477,0,0,1-.064.98m-4.2-2.025a1.5,1.5,0,0,0-.511-1.2,1.9,1.9,0,0,0-1.279-.437,1.877,1.877,0,0,0-1.257.415,2.022,2.022,0,0,0-.639,1.226Z" transform="translate(-32.456 -10.662)"/><path d="M139.228,42.459a5.289,5.289,0,0,1,2.143-2.131,6.48,6.48,0,0,1,3.143-.746,5.942,5.942,0,0,1,3.837,1.247,5.722,5.722,0,0,1,2,3.484h-4.433a1.484,1.484,0,0,0-1.492-1.172,1.447,1.447,0,0,0-1.247.65,3.306,3.306,0,0,0-.458,1.908,3.357,3.357,0,0,0,.458,1.919,1.442,1.442,0,0,0,1.247.66,1.464,1.464,0,0,0,1.492-1.173h4.433a5.757,5.757,0,0,1-2,3.475,5.907,5.907,0,0,1-3.837,1.257,6.48,6.48,0,0,1-3.143-.746,5.282,5.282,0,0,1-2.143-2.132,7.27,7.27,0,0,1,0-6.5" transform="translate(-37.297 -10.662)"/><path d="M168.22,39.648a5.445,5.445,0,0,1,1.2,3.72v6.97h-4.178V43.922a2.3,2.3,0,0,0-.533-1.61,1.836,1.836,0,0,0-1.428-.585,1.891,1.891,0,0,0-1.471.585,2.307,2.307,0,0,0-.533,1.61v6.416H157.1V34.564h4.178v5.521a4.1,4.1,0,0,1,1.5-1.311,4.606,4.606,0,0,1,2.185-.5,4.1,4.1,0,0,1,3.251,1.375" transform="translate(-42.319 -9.311)"/><path d="M183.874,47.115v3.56h-1.812q-4.583,0-4.583-4.54V42.191h-1.471V38.716h1.471v-2.9h4.2v2.9h2.175v3.475h-2.175V46.2a.939.939,0,0,0,.224.7,1.085,1.085,0,0,0,.757.213Z" transform="translate(-47.411 -9.648)"/><path d="M191.378,51.294a4.923,4.923,0,0,1-2-1.492,3.869,3.869,0,0,1-.82-2.142h4.05a1.277,1.277,0,0,0,.533.9,1.856,1.856,0,0,0,1.108.32,1.364,1.364,0,0,0,.81-.213.651.651,0,0,0,.3-.554.7.7,0,0,0-.49-.661,10.143,10.143,0,0,0-1.621-.468,14.008,14.008,0,0,1-2.131-.576,3.637,3.637,0,0,1-1.482-1.045A2.892,2.892,0,0,1,189,43.4a3.4,3.4,0,0,1,.576-1.929,3.936,3.936,0,0,1,1.694-1.375,6.449,6.449,0,0,1,2.7-.511,5.485,5.485,0,0,1,3.688,1.151,4.505,4.505,0,0,1,1.556,3.027h-3.773a1.4,1.4,0,0,0-.5-.884,1.661,1.661,0,0,0-1.055-.309,1.329,1.329,0,0,0-.778.191.622.622,0,0,0-.267.533.708.708,0,0,0,.491.651,8.36,8.36,0,0,0,1.577.457,13.968,13.968,0,0,1,2.164.618,3.854,3.854,0,0,1,1.513,1.1,3.054,3.054,0,0,1,.65,2.057,3.1,3.1,0,0,1-.608,1.876,4.058,4.058,0,0,1-1.726,1.311,6.66,6.66,0,0,1-2.633.479,7.269,7.269,0,0,1-2.888-.544" transform="translate(-50.79 -10.662)"/><path d="M250.467,39.185c-8.73,0-17.459-4.493-27.883-13.478l-1.605-1.384,1.605-1.384c20.845-17.969,34.918-17.971,55.766,0l1.605,1.384-1.605,1.384c-10.423,8.985-19.154,13.478-27.883,13.478M226.6,24.323c18.044,15,29.685,15,47.729,0-18.044-15-29.685-15-47.729,0" transform="translate(-59.525 -2.549)"/><path d="M255.978,38.982a14.541,14.541,0,1,1,14.54-14.542,14.557,14.557,0,0,1-14.54,14.542m0-25.429A10.888,10.888,0,1,0,266.865,24.44a10.9,10.9,0,0,0-10.887-10.887" transform="translate(-65.035 -2.667)"/><path d="M258.558,34.564a7.543,7.543,0,1,1,7.542-7.543,7.552,7.552,0,0,1-7.542,7.543m0-11.432a3.89,3.89,0,1,0,3.889,3.889,3.894,3.894,0,0,0-3.889-3.889" transform="translate(-67.615 -5.247)"/><path d="M300.679,52.254H280.643V48.6h16.382V41.249h3.653Z" transform="translate(-75.596 -11.111)"/><path d="M300.679,12.426h-3.653V5.074H280.643V1.42h20.035Z" transform="translate(-75.596 -0.383)"/><path d="M218.314,12.426h-3.653V1.42H234.7V5.074H218.314Z" transform="translate(-57.823 -0.383)"/><path d="M234.7,52.254H214.661V41.249h3.653V48.6H234.7Z" transform="translate(-57.823 -11.111)"/></g></g></svg>